PathFileType	4	(X/Y/Z)	C:/Users/opensim2020/Desktop/walking_exp_matlab/subject03_walking07_straight_04.trc																																																																																																																																								
DataRate	CameraRate	NumFrames	NumMarkers	Units	OrigDataRate	OrigDataStartFrame	OrigNumFrames																																																																																																																																				
100	100	5	46	mm	100	2959	265																																																																																																																																				
Frame#	Time	LFHD			RFHD			LBHD			RBHD			C7			T10			CLAV			STRN			RBAK			LSHO			LUPA			LELB			LFRM			LWRA			LWRB			LFIN			RSHO			RUPA			RELB			RFRM			RWRA			RWRB			RFIN			LASI			RASI			LPSI			RPSI			LTHI			LKNE			LTIB			LANK			LHEE			LTOE			RTHI			RKNE			RTIB			RANK			RHEE			RTOE			*39			*40			*41			*42			*43			*44			*45		
		X1	Y1	Z1	X2	Y2	Z2	X3	Y3	Z3	X4	Y4	Z4	X5	Y5	Z5	X6	Y6	Z6	X7	Y7	Z7	X8	Y8	Z8	X9	Y9	Z9	X10	Y10	Z10	X11	Y11	Z11	X12	Y12	Z12	X13	Y13	Z13	X14	Y14	Z14	X15	Y15	Z15	X16	Y16	Z16	X17	Y17	Z17	X18	Y18	Z18	X19	Y19	Z19	X20	Y20	Z20	X21	Y21	Z21	X22	Y22	Z22	X23	Y23	Z23	X24	Y24	Z24	X25	Y25	Z25	X26	Y26	Z26	X27	Y27	Z27	X28	Y28	Z28	X29	Y29	Z29	X30	Y30	Z30	X31	Y31	Z31	X32	Y32	Z32	X33	Y33	Z33	X34	Y34	Z34	X35	Y35	Z35	X36	Y36	Z36	X37	Y37	Z37	X38	Y38	Z38	X39	Y39	Z39	X40	Y40	Z40	X41	Y41	Z41	X42	Y42	Z42	X43	Y43	Z43	X44	Y44	Z44	X45	Y45	Z45	X46	Y46	Z46
																																																																																																																																											
1	0	-1054.05957	1598.61523	917.44086	-1058.28955	1611.96802	1049.69165	-1185.13281	1563.55945	920.04901	-1184.23572	1576.02393	1050.34509	-1226.12671	1410.00378	996.1698	-1276.86902	1098.61633	1009.23816	-1109.14038	1325.83459	990.07135	-1074.8302	1158.79346	987.9259	-1277.82666	1240.79468	1106.03638	-1166.96936	1360.39514	836.60358	-1207.49731	1165.12415	767.88983	-1216.71387	1042.28137	754.45239	-1199.18799	913.56927	753.87567	-1183.15918	795.99609	784.55804	-1211.36096	800.92743	736.39789	-1195.37793	718.64221	744.70251	-1137.53259	1357.98071	1150.04529	-1094.57947	1148.62671	1236.98975	-1050.91479	1046.23352	1254.42053	-991.32996	923.30707	1256.9115	-935.76202	842.65479	1219.28943	-959.08221	828.716	1265.66492	-912.19049	771.89264	1255.16113	-1118.86597	928.86646	885.88806	-1110.00769	929.93439	1123.56384	-1280.1156	947.59698	939.96991	-1271.12207	964.43622	1089.29565	-1103.77954	631.96185	837.40277	-1031.6405	470.06921	875.6795	-1036.78418	276.07874	876.20929	-999.24103	68.58817	911.83606	-1027.90063	27.51698	954.32037	-848.43555	58.46592	921.55432	-1202.33801	640.7464	1164.01453	-1223.09778	461.71652	1129.69727	-1302.42407	286.0434	1132.81396	-1368.94226	78.62801	1084.95081	-1415.72827	51.42309	1034.40564	-1231.27075	30.28138	1076.06677	-1132.95105	1670.82166	960.38074	NaN	NaN	NaN	NaN	NaN	NaN	NaN	NaN	NaN	NaN	NaN	NaN	NaN	NaN	NaN	NaN	NaN	NaN
2	0.01	-1044.9585	1597.4906	917.15881	-1049.16199	1610.89343	1049.43152	-1175.93982	1562.2439	919.83374	-1175.0321	1574.73242	1050.09888	-1216.79724	1408.8916	995.92926	-1267.86584	1097.48865	1008.43878	-1099.82251	1324.5	989.8266	-1065.70227	1157.52832	987.76404	-1268.79944	1239.75012	1105.60303	-1157.51587	1359.24573	836.29376	-1199.35559	1164.09021	768.10638	-1209.54395	1041.34827	754.73395	-1193.05383	912.36853	754.10059	-1177.92151	794.68628	784.80389	-1206.21606	799.87329	736.71942	-1191.14917	717.34143	745.20001	-1128.18958	1356.63721	1149.6759	-1084.573	1147.54175	1236.42517	-1040.66101	1045.28674	1253.72754	-979.97064	922.94031	1255.46301	-923.91968	843.04797	1217.21326	-946.75012	828.58234	1263.56885	-899.04175	772.6441	1252.57715	-1109.3595	927.35706	885.66351	-1101.54443	928.89374	1123.40662	-1270.76147	946.15051	939.01141	-1262.65063	963.2171	1088.42566	-1097.16199	629.36011	837.21722	-1024.198	468.13068	877.21332	-1022.14618	275.38544	875.91614	-975.49921	69.27425	909.25586	-1002.48212	26.75441	951.68835	-823.90802	63.69854	918.52612	-1195.41663	640.08508	1164.0083	-1217.36719	461.12299	1129.68201	-1298.91785	286.30811	1132.8031	-1368.29248	79.73863	1084.92114	-1415.40735	53.08517	1034.46082	-1231.16907	30.15456	1075.96838	-1123.97339	1669.0354	959.63464	NaN	NaN	NaN	NaN	NaN	NaN	NaN	NaN	NaN	NaN	NaN	NaN	NaN	NaN	NaN	NaN	NaN	NaN
3	0.02	-1035.76855	1596.48022	916.83771	-1039.97974	1609.87878	1049.11536	-1166.69385	1561.01453	919.60583	-1165.81763	1573.59131	1049.87317	-1207.31824	1407.77588	995.55109	-1258.77161	1096.46924	1007.60583	-1090.41235	1323.33618	989.52582	-1056.51709	1156.25598	987.48663	-1259.73499	1238.72083	1105.02698	-1147.93372	1358.15723	835.88556	-1190.87842	1163.03149	768.27252	-1201.99866	1040.3468	755.1109	-1186.53662	911.19336	754.27216	-1172.34949	793.30994	785.06055	-1200.92896	798.7901	737.10724	-1186.84949	715.99237	745.65356	-1118.8208	1355.35095	1149.32007	-1074.58215	1146.40515	1235.68982	-1030.51746	1044.14063	1252.99487	-968.98163	922.43146	1253.95557	-912.42938	843.16718	1214.98914	-934.7995	828.25787	1261.24915	-886.53589	773.28503	1250.09387	-1099.69116	925.87714	885.3172	-1093.00488	927.88678	1123.27148	-1261.36548	944.89575	937.96436	-1254.03992	962.00366	1087.38062	-1090.37085	627.03467	836.87695	-1016.71558	466.25726	878.29193	-1008.32532	274.94913	875.60663	-953.94983	70.269	906.96484	-979.15338	26.6911	949.2356	-801.32104	68.82347	915.5943	-1188.27563	639.47241	1163.8938	-1211.40796	460.61823	1129.69739	-1295.25464	286.54834	1132.5603	-1367.58618	81.11713	1085.0415	-1415.04163	55.03112	1034.60449	-1231.02661	30.10553	1075.98157	-1114.86804	1668.39685	959.71692	NaN	NaN	NaN	NaN	NaN	NaN	NaN	NaN	NaN	NaN	NaN	NaN	NaN	NaN	NaN	NaN	NaN	NaN
4	0.03	-1026.58826	1595.53357	916.5163	-1030.71521	1608.97363	1048.78369	-1157.43091	1559.78369	919.1922	-1156.53088	1572.51892	1049.57495	-1197.86816	1406.75403	995.0946	-1249.5332	1095.52502	1006.68903	-1080.97314	1322.24915	989.24677	-1047.17517	1155.07117	987.21729	-1250.63428	1237.7384	1104.28564	-1138.25488	1357.16089	835.44495	-1182.17224	1162.05615	768.39728	-1193.95044	1039.36475	755.47345	-1179.83008	909.99738	754.57941	-1166.52271	791.96515	785.26105	-1195.36536	797.77002	737.49933	-1182.4491	714.77252	746.08899	-1109.47522	1354.10156	1148.88525	-1064.69714	1145.32336	1234.83374	-1020.51318	1043.09863	1251.96729	-958.12537	921.81732	1252.32532	-901.25244	843.24542	1212.97192	-923.47552	827.88257	1259.24158	-874.51239	773.5509	1247.55627	-1089.74207	924.58771	885.0575	-1084.39844	926.91284	1123.13672	-1251.76392	943.76471	936.72467	-1245.32886	960.8822	1086.23621	-1082.99048	625.00201	836.5022	-1009.50262	464.07245	879.71857	-995.34302	274.65536	875.20227	-934.35236	71.37827	904.87695	-958.11639	27.10891	946.91687	-780.88312	73.43134	913.06744	-1180.97913	638.9964	1163.74158	-1205.21777	460.20795	1129.71216	-1291.44922	287.22946	1132.88501	-1366.65308	82.5938	1085.35193	-1414.51013	57.20152	1034.81079	-1230.88843	30.06832	1075.99963	-1105.48181	1667.29016	958.88708	NaN	NaN	NaN	NaN	NaN	NaN	NaN	NaN	NaN	NaN	NaN	NaN	NaN	NaN	NaN	NaN	NaN	NaN
5	0.04	-1017.20758	1594.70496	916.07886	-1021.41235	1608.20227	1048.38379	-1148.07788	1558.93958	918.84741	-1147.17078	1571.59351	1049.19775	-1188.29126	1405.81262	994.54382	-1240.16357	1094.66479	1005.72772	-1071.43616	1321.27209	988.86694	-1037.82788	1154.1167	986.83655	-1241.46765	1236.82849	1103.45276	-1128.41125	1356.31702	834.93066	-1173.19312	1161.13696	768.47388	-1185.55737	1038.42798	755.90045	-1172.63782	908.88611	754.94055	-1160.13733	790.64417	785.71582	-1189.40637	796.74359	737.96265	-1177.7843	713.58954	746.57019	-1100.1886	1352.97986	1148.48022	-1055.00391	1144.24634	1233.8457	-1010.66589	1042.08545	1250.80054	-947.81641	921.09741	1250.68115	-890.50256	843.091	1210.80493	-912.47113	827.28687	1257.01404	-863.06378	773.58429	1245.02148	-1079.68945	923.39233	884.73822	-1075.65662	926.04773	1123.0321	-1242.01306	942.82062	935.4563	-1236.45105	959.87402	1084.99634	-1075.10718	623.33246	836.34656	-1002.04559	462.41428	880.22449	-983.46289	274.40515	874.80078	-917.28845	72.33237	902.82642	-939.81921	27.44761	944.74548	-763.01105	77.26401	911.3175	-1173.53003	638.73853	1163.66333	-1198.91467	459.97629	1129.81165	-1287.48682	288.01392	1133.02954	-1365.62915	84.39219	1085.71497	-1413.94116	59.763	1035.1615	-1230.65015	30.04671	1076.14832	-1096.56335	1665.96472	958.68079	NaN	NaN	NaN	NaN	NaN	NaN	NaN	NaN	NaN	NaN	NaN	NaN	NaN	NaN	NaN	NaN	NaN	NaN
